<?xml version="1.0" encoding="utf-8"?>
<!-- Generator: Adobe Illustrator 16.0.0, SVG Export Plug-In . SVG Version: 6.00 Build 0)  -->
<!DOCTYPE svg PUBLIC "-//W3C//DTD SVG 1.1//EN" "http://www.w3.org/Graphics/SVG/1.1/DTD/svg11.dtd">
<svg version="1.1" id="Слой_1" xmlns="http://www.w3.org/2000/svg" xmlns:xlink="http://www.w3.org/1999/xlink" x="0px" y="0px"
	 width="122.66px" height="181.04px" viewBox="0 0 122.66 181.04" enable-background="new 0 0 122.66 181.04" xml:space="preserve">
<g>
	<defs>
		<rect id="SVGID_1_" width="122.66" height="181.04"/>
	</defs>
	<clipPath id="SVGID_2_">
		<use xlink:href="#SVGID_1_"  overflow="visible"/>
	</clipPath>
	<path clip-path="url(#SVGID_2_)" d="M119.334,59.667c0-32.834-26.714-59.601-59.55-59.666c-0.006-0.002-0.011,0-0.016,0h-0.101
		C26.766,0.001,0,26.767,0,59.668l0.035,82.502c0,0.477,0.337,0.887,0.805,0.98c0.468,0.097,0.936-0.155,1.119-0.597L39.04,53.447
		v88.723c0,0.552,0.448,1,1,1h38.333c0.553,0,1-0.448,1-1V50.68l38.232,91.874c0.157,0.379,0.526,0.616,0.923,0.616
		c0.065,0,0.132-0.006,0.197-0.02c0.468-0.095,0.805-0.506,0.803-0.982L119.334,59.667z M115.813,46.564H79.827L61.291,2.023
		C87.85,2.765,109.975,21.583,115.813,46.564 M59.782,3.603L77.66,46.564H41.905L59.782,3.603z M58.276,2.017L39.738,46.564H3.519
		C9.369,21.496,31.602,2.653,58.276,2.017 M2,59.667c0-3.798,0.376-7.508,1.081-11.103h35.825L2.033,137.169L2,59.667z
		 M41.04,48.641l0.032-0.077h17.135v92.606H41.04V48.641z M60.207,48.564h17.167v92.606H60.207V48.564z M80.659,48.564h35.593
		c0.705,3.596,1.082,7.307,1.082,11.105l0.183,77.466L80.659,48.564z"/>
	<path clip-path="url(#SVGID_2_)" d="M13.93,157.606c-0.586-0.664-1.367-1.201-2.343-1.611c-0.977-0.41-2.09-0.614-3.34-0.614
		c-1.836,0-3.173,0.347-4.013,1.039c-0.84,0.693-1.259,1.637-1.259,2.826c0,0.626,0.112,1.139,0.337,1.538
		c0.224,0.401,0.571,0.747,1.039,1.04c0.469,0.293,1.07,0.547,1.802,0.761c0.732,0.217,1.596,0.431,2.592,0.646
		c1.113,0.234,2.114,0.498,3.002,0.791c0.889,0.293,1.645,0.659,2.271,1.098c0.624,0.44,1.103,0.973,1.435,1.598
		s0.498,1.405,0.498,2.343c0,0.957-0.186,1.787-0.557,2.49c-0.371,0.702-0.888,1.289-1.552,1.757
		c-0.664,0.469-1.455,0.815-2.372,1.04c-0.919,0.224-1.924,0.337-3.018,0.337c-3.222,0-6.004-1.005-8.348-3.018l1.025-1.669
		c0.371,0.391,0.816,0.762,1.333,1.112c0.517,0.353,1.093,0.66,1.728,0.923c0.635,0.265,1.313,0.469,2.036,0.616
		c0.723,0.146,1.484,0.219,2.285,0.219c1.659,0,2.953-0.298,3.881-0.893c0.927-0.596,1.392-1.499,1.392-2.71
		c0-0.645-0.132-1.187-0.396-1.626s-0.659-0.82-1.187-1.143c-0.526-0.321-1.181-0.6-1.962-0.835
		c-0.781-0.233-1.689-0.469-2.724-0.703c-1.094-0.253-2.05-0.517-2.871-0.79c-0.82-0.273-1.513-0.615-2.079-1.025
		c-0.567-0.41-0.991-0.903-1.275-1.479c-0.283-0.575-0.424-1.283-0.424-2.124c0-0.956,0.18-1.811,0.542-2.563
		c0.361-0.751,0.874-1.376,1.538-1.874c0.663-0.498,1.444-0.879,2.343-1.144c0.898-0.264,1.894-0.395,2.988-0.395
		c1.386,0,2.621,0.21,3.705,0.629c1.084,0.421,2.065,1.011,2.944,1.773L13.93,157.606z"/>
	<path clip-path="url(#SVGID_2_)" d="M32.56,174.508h-1.992v-8.524c0-1.737-0.298-3.035-0.893-3.896
		c-0.596-0.859-1.47-1.288-2.622-1.288c-0.567,0-1.128,0.112-1.684,0.336c-0.557,0.225-1.08,0.533-1.567,0.923
		c-0.489,0.392-0.913,0.85-1.275,1.377c-0.361,0.527-0.63,1.104-0.805,1.729v9.344h-1.992v-21.383h1.992v9.578
		c0.605-1.152,1.445-2.061,2.519-2.725c1.074-0.663,2.236-0.995,3.486-0.995c0.878,0,1.62,0.161,2.226,0.482
		c0.605,0.323,1.103,0.772,1.494,1.348c0.39,0.576,0.674,1.271,0.849,2.08c0.176,0.811,0.264,1.704,0.264,2.681V174.508z"/>
	<polygon clip-path="url(#SVGID_2_)" points="48.289,174.508 42.665,166.687 39.384,169.733 39.384,174.508 37.393,174.508 
		37.393,153.125 39.384,153.125 39.384,167.654 47.967,159.275 50.223,159.275 43.982,165.515 50.457,174.508 	"/>
	<path clip-path="url(#SVGID_2_)" d="M61.118,161.005c-1.347,0.038-2.519,0.409-3.515,1.112c-0.996,0.703-1.699,1.67-2.109,2.9v9.49
		h-1.992v-15.262h1.875v3.662c0.566-1.172,1.328-2.09,2.285-2.754c0.956-0.663,1.981-0.996,3.076-0.996
		c0.155,0,0.282,0.012,0.38,0.03V161.005z"/>
	<path clip-path="url(#SVGID_2_)" d="M70.111,174.801c-1.112,0-2.129-0.21-3.046-0.63c-0.918-0.419-1.714-0.991-2.387-1.713
		c-0.674-0.723-1.197-1.563-1.568-2.52s-0.556-1.963-0.556-3.017c0-1.074,0.19-2.09,0.571-3.047c0.381-0.956,0.907-1.796,1.582-2.52
		c0.674-0.722,1.469-1.299,2.387-1.728c0.918-0.43,1.923-0.645,3.017-0.645s2.104,0.215,3.032,0.645
		c0.927,0.429,1.729,1.006,2.402,1.728c0.674,0.724,1.201,1.563,1.581,2.52c0.381,0.957,0.571,1.973,0.571,3.047
		c0,1.054-0.186,2.06-0.557,3.017s-0.893,1.797-1.567,2.52c-0.674,0.722-1.475,1.294-2.401,1.713
		C72.245,174.591,71.225,174.801,70.111,174.801 M64.576,166.95c0,0.859,0.146,1.655,0.438,2.388s0.688,1.377,1.187,1.933
		c0.498,0.558,1.084,0.992,1.758,1.304c0.674,0.313,1.391,0.47,2.152,0.47c0.763,0,1.479-0.161,2.153-0.484
		c0.674-0.322,1.264-0.761,1.772-1.318c0.508-0.557,0.907-1.206,1.2-1.947c0.293-0.742,0.44-1.542,0.44-2.402
		c0-0.839-0.147-1.635-0.44-2.387s-0.692-1.406-1.2-1.963c-0.509-0.557-1.099-0.995-1.772-1.318
		c-0.674-0.322-1.391-0.483-2.153-0.483c-0.762,0-1.474,0.161-2.138,0.483c-0.664,0.323-1.25,0.767-1.758,1.333
		c-0.508,0.567-0.908,1.226-1.201,1.977C64.722,165.285,64.576,166.092,64.576,166.95"/>
	<path clip-path="url(#SVGID_2_)" d="M87.744,174.713c-1.054,0-2.016-0.22-2.885-0.659s-1.621-1.021-2.255-1.742
		c-0.635-0.723-1.128-1.553-1.48-2.49c-0.351-0.938-0.526-1.904-0.526-2.899c0-1.056,0.171-2.066,0.513-3.032
		c0.341-0.967,0.824-1.812,1.45-2.534c0.624-0.722,1.371-1.298,2.241-1.729c0.867-0.429,1.829-0.644,2.885-0.644
		c1.308,0,2.44,0.327,3.397,0.981c0.956,0.654,1.777,1.479,2.46,2.475v-3.193h1.787v15.32c0,1.055-0.2,1.987-0.6,2.797
		c-0.401,0.811-0.938,1.489-1.612,2.036c-0.673,0.546-1.464,0.956-2.372,1.23c-0.908,0.272-1.87,0.41-2.885,0.41
		c-1.758,0-3.174-0.313-4.248-0.938s-1.943-1.464-2.607-2.52l1.231-0.967c0.605,0.978,1.405,1.694,2.401,2.153
		s2.069,0.688,3.223,0.688c0.741,0,1.444-0.103,2.108-0.308s1.245-0.508,1.743-0.908c0.497-0.4,0.894-0.908,1.187-1.522
		c0.293-0.615,0.438-1.333,0.438-2.153v-3.017c-0.586,0.976-1.387,1.748-2.401,2.313C89.922,174.431,88.858,174.713,87.744,174.713
		 M88.302,173.043c0.586,0,1.161-0.106,1.728-0.321s1.079-0.503,1.538-0.865c0.459-0.361,0.844-0.766,1.157-1.215
		c0.312-0.449,0.517-0.908,0.614-1.377v-4.716c-0.215-0.548-0.508-1.055-0.879-1.523s-0.79-0.869-1.259-1.201
		s-0.972-0.595-1.509-0.791c-0.537-0.194-1.079-0.293-1.625-0.293c-0.86,0-1.626,0.182-2.3,0.542
		c-0.674,0.362-1.245,0.835-1.714,1.421s-0.825,1.25-1.068,1.992c-0.245,0.742-0.367,1.494-0.367,2.255
		c0,0.82,0.147,1.602,0.44,2.343c0.293,0.743,0.697,1.393,1.215,1.948c0.517,0.558,1.118,0.996,1.802,1.319
		C86.758,172.883,87.5,173.043,88.302,173.043"/>
	<path clip-path="url(#SVGID_2_)" d="M104.147,174.801c-0.722,0-1.391-0.122-2.006-0.366s-1.153-0.58-1.611-1.012
		c-0.459-0.429-0.815-0.932-1.068-1.508c-0.255-0.574-0.381-1.195-0.381-1.859s0.155-1.278,0.468-1.846
		c0.313-0.565,0.752-1.055,1.318-1.465c0.565-0.41,1.239-0.727,2.021-0.952c0.781-0.224,1.641-0.337,2.578-0.337
		c0.781,0,1.572,0.069,2.373,0.205c0.8,0.137,1.513,0.333,2.138,0.586v-1.377c0-1.347-0.381-2.416-1.142-3.207
		c-0.763-0.791-1.816-1.186-3.164-1.186c-0.781,0-1.581,0.156-2.402,0.468c-0.82,0.313-1.649,0.762-2.489,1.348l-0.703-1.317
		c1.973-1.328,3.886-1.992,5.741-1.992c1.913,0,3.417,0.537,4.512,1.611c1.093,1.073,1.64,2.558,1.64,4.451v6.885
		c0,0.547,0.244,0.819,0.732,0.819v1.758c-0.332,0.059-0.586,0.088-0.762,0.088c-0.508,0-0.903-0.127-1.187-0.382
		c-0.283-0.253-0.435-0.604-0.453-1.054l-0.06-1.201c-0.702,0.918-1.587,1.621-2.65,2.109
		C106.524,174.557,105.378,174.801,104.147,174.801 M104.617,173.277c1.034,0,1.986-0.195,2.855-0.585
		c0.869-0.391,1.527-0.909,1.977-1.553c0.177-0.177,0.309-0.366,0.396-0.571c0.087-0.206,0.131-0.396,0.131-0.571v-2.489
		c-0.664-0.255-1.352-0.449-2.064-0.587c-0.714-0.137-1.44-0.204-2.183-0.204c-1.406,0-2.549,0.293-3.427,0.878
		c-0.879,0.586-1.318,1.357-1.318,2.314c0,0.468,0.093,0.908,0.278,1.318c0.185,0.41,0.439,0.766,0.762,1.068
		c0.321,0.304,0.707,0.542,1.156,0.719C103.631,173.189,104.108,173.277,104.617,173.277"/>
	<path clip-path="url(#SVGID_2_)" d="M116.948,153.125h1.992v17.926c0,0.567,0.155,1.012,0.468,1.333
		c0.313,0.323,0.752,0.484,1.319,0.484c0.214,0,0.469-0.03,0.762-0.088c0.292-0.06,0.564-0.138,0.819-0.235l0.352,1.611
		c-0.371,0.157-0.825,0.283-1.362,0.381s-1.001,0.146-1.392,0.146c-0.917,0-1.64-0.259-2.167-0.776s-0.791-1.244-0.791-2.183
		V153.125z"/>
</g>
</svg>
