<?xml version="1.0" encoding="utf-8"?>
<!-- Generator: Adobe Illustrator 16.0.0, SVG Export Plug-In . SVG Version: 6.00 Build 0)  -->
<!DOCTYPE svg PUBLIC "-//W3C//DTD SVG 1.1//EN" "http://www.w3.org/Graphics/SVG/1.1/DTD/svg11.dtd">
<svg version="1.1" id="Слой_1" xmlns="http://www.w3.org/2000/svg" xmlns:xlink="http://www.w3.org/1999/xlink" x="0px" y="0px"
	 width="155.431px" height="154.682px" viewBox="0 0 155.431 154.682" enable-background="new 0 0 155.431 154.682"
	 xml:space="preserve">
<g>
	<defs>
		<rect fill="#ffffff" id="SVGID_1_" width="155.431" height="154.682"/>
	</defs>
	<clipPath fill="#ffffff" id="SVGID_2_">
		<use xlink:href="#SVGID_1_"  overflow="visible"/>
	</clipPath>
	<path fill="#ffffff" clip-path="url(#SVGID_2_)" d="M134.905,154.682H20.527c-1.857,0-3.362-1.504-3.362-3.363V81.961h6.725v65.996h107.652V81.961
		h6.726v69.357C138.268,153.178,136.762,154.682,134.905,154.682"/>
	<path fill="#ffffff" clip-path="url(#SVGID_2_)" d="M4.111,97.534L0,92.213l75.661-58.442c1.212-0.939,2.9-0.939,4.111,0l75.659,58.442
		l-4.112,5.32L77.717,40.681L4.111,97.534z"/>
	<path fill="#ffffff" clip-path="url(#SVGID_2_)" d="M94.192,154.682H61.24c-1.857,0-3.362-1.504-3.362-3.362v-27.283
		c0-9.086,7.393-16.48,16.483-16.48h6.712c9.088,0,16.481,7.395,16.481,16.48v27.283C97.555,153.178,96.049,154.682,94.192,154.682
		 M64.603,147.957h26.226v-23.92c0-5.378-4.377-9.756-9.756-9.756h-6.712c-5.381,0-9.758,4.378-9.758,9.756V147.957z"/>
	<rect fill="#ffffff" x="74.353" clip-path="url(#SVGID_2_)" width="6.725" height="36.431"/>
	<rect fill="#ffffff" x="60.469" y="10.998" clip-path="url(#SVGID_2_)" width="34.495" height="6.725"/>
</g>
</svg>
