<?xml version="1.0" encoding="utf-8"?>
<!-- Generator: Adobe Illustrator 16.0.0, SVG Export Plug-In . SVG Version: 6.00 Build 0)  -->
<!DOCTYPE svg PUBLIC "-//W3C//DTD SVG 1.1//EN" "http://www.w3.org/Graphics/SVG/1.1/DTD/svg11.dtd">
<svg version="1.1" id="Слой_1" xmlns="http://www.w3.org/2000/svg" xmlns:xlink="http://www.w3.org/1999/xlink" x="0px" y="0px"
	 width="151.319px" height="158.045px" viewBox="0 0 151.319 158.045" enable-background="new 0 0 151.319 158.045"
	 xml:space="preserve">
<g>
	<defs>
		<rect fill="#ffffff" id="SVGID_1_" width="151.319" height="158.045"/>
	</defs>
	<clipPath id="SVGID_2_">
		<use xlink:href="#SVGID_1_"  overflow="visible"/>
	</clipPath>
	<path fill="#ffffff" clip-path="url(#SVGID_2_)" d="M114.708,76.622c-7.244,0-14.17-3.406-19.526-9.481c-5.355,6.075-12.28,9.481-19.521,9.481
		s-14.167-3.406-19.523-9.481c-5.356,6.075-12.281,9.481-19.525,9.481c-16.265,0-29.499-16.988-29.499-37.866
		c0-0.752,0.246-1.458,0.666-2.03L25.791,1.819C26.369,0.702,27.522,0,28.78,0h93.76c1.258,0,2.41,0.702,2.988,1.819l18.009,34.897
		c0.42,0.555,0.669,1.242,0.669,1.984C144.206,59.634,130.973,76.622,114.708,76.622 M95.182,58.278c1.12,0,2.164,0.558,2.788,1.484
		c4.338,6.44,10.437,10.134,16.738,10.134c12.344,0,22.422-13.496,22.763-30.264L120.491,6.725H30.828l-16.98,32.904
		c0.361,16.797,10.433,30.267,22.764,30.267c6.301,0,12.399-3.694,16.737-10.134c1.248-1.852,4.328-1.852,5.576,0
		c4.338,6.44,10.436,10.134,16.735,10.134c6.298,0,12.396-3.694,16.733-10.134C93.018,58.836,94.062,58.278,95.182,58.278"/>
	<path fill="#ffffff" clip-path="url(#SVGID_2_)" d="M136.795,158.045H14.524c-1.858,0-3.362-1.504-3.362-3.363V58.2h6.725v93.121h115.545V58.2
		h6.727v96.482C140.158,156.541,138.654,158.045,136.795,158.045"/>
	<rect fill="#ffffff" y="151.32" clip-path="url(#SVGID_2_)" width="151.32" height="6.725"/>
	<path fill="#ffffff" clip-path="url(#SVGID_2_)" d="M124.323,158.045H89.728c-1.858,0-3.362-1.504-3.362-3.362v-42.218
		c0-11.392,9.271-20.658,20.662-20.658s20.658,9.267,20.658,20.658v42.218C127.686,156.541,126.182,158.045,124.323,158.045
		 M93.091,151.319h27.87v-38.854c0-7.685-6.249-13.934-13.934-13.934s-13.937,6.249-13.937,13.934V151.319z"/>
</g>
</svg>
