<?xml version="1.0" encoding="utf-8"?>
<!-- Generator: Adobe Illustrator 16.0.0, SVG Export Plug-In . SVG Version: 6.00 Build 0)  -->
<!DOCTYPE svg PUBLIC "-//W3C//DTD SVG 1.1//EN" "http://www.w3.org/Graphics/SVG/1.1/DTD/svg11.dtd">
<svg version="1.1" id="Слой_1" xmlns="http://www.w3.org/2000/svg" xmlns:xlink="http://www.w3.org/1999/xlink" x="0px" y="0px"
	 width="158.044px" height="154.682px" viewBox="0 0 158.044 154.682" enable-background="new 0 0 158.044 154.682"
	 xml:space="preserve">
<path fill="#ffffff" d="M130.723,154.682H27.321c-1.857,0-3.363-1.504-3.363-3.363v-97.06c0-1.859,1.506-3.363,3.363-3.363h103.402
	c1.857,0,3.362,1.504,3.362,3.363v97.06C134.085,153.178,132.58,154.682,130.723,154.682 M30.684,147.958h96.676V57.622H30.684
	V147.958z"/>
<path fill="#ffffff" d="M154.682,57.622H3.362c-1.265,0-2.425-0.712-2.998-1.842c-0.573-1.13-0.463-2.483,0.284-3.507l23.959-32.747
	c0.634-0.863,1.642-1.376,2.714-1.376h103.402c1.072,0,2.08,0.513,2.714,1.376l23.959,32.747c0.747,1.024,0.857,2.377,0.284,3.507
	C157.106,56.91,155.948,57.622,154.682,57.622 M9.989,50.896h138.066l-19.038-26.021h-99.99L9.989,50.896z"/>
<rect fill="#ffffff" x="39.312" width="6.725" height="22.399"/>
<rect fill="#ffffff" x="40.298" y="99.425" width="12.687" height="6.725"/>
<rect fill="#ffffff" x="40.298" y="79.165" width="12.687" height="6.725"/>
<rect fill="#ffffff" x="105.433" y="99.425" width="12.688" height="6.725"/>
<rect fill="#ffffff" x="105.433" y="79.165" width="12.688" height="6.725"/>
<path fill="#ffffff" d="M94.096,154.682H63.947V95.937h30.149V154.682z M70.673,147.958h16.698v-45.294H70.673V147.958z"/>
<rect fill="none" width="158.044" height="154.682"/>
</svg>
