<?xml version="1.0" encoding="utf-8"?>
<!-- Generator: Adobe Illustrator 16.0.0, SVG Export Plug-In . SVG Version: 6.00 Build 0)  -->
<!DOCTYPE svg PUBLIC "-//W3C//DTD SVG 1.1//EN" "http://www.w3.org/Graphics/SVG/1.1/DTD/svg11.dtd">
<svg version="1.1" id="Слой_1" xmlns="http://www.w3.org/2000/svg" xmlns:xlink="http://www.w3.org/1999/xlink" x="0px" y="0px"
	 width="10.75px" height="38.621px" viewBox="0 0 10.75 38.621" enable-background="new 0 0 10.75 38.621" xml:space="preserve">
<path fill="#FFFFFF" d="M10.677,8.236l-4.875-8C5.798,0.23,5.793,0.226,5.789,0.221C5.776,0.204,5.763,0.19,5.749,0.174
	C5.721,0.142,5.69,0.113,5.657,0.089c-0.009-0.005-0.014-0.014-0.022-0.02S5.614,0.063,5.604,0.058
	c-0.037-0.02-0.076-0.033-0.118-0.043C5.466,0.01,5.448,0.004,5.428,0.002C5.385-0.002,5.342,0.001,5.299,0.008
	c-0.017,0.003-0.033,0.001-0.05,0.006c-0.003,0.001-0.006,0-0.009,0.001c-0.007,0.002-0.01,0.008-0.016,0.01
	c-0.085,0.027-0.159,0.079-0.22,0.15C4.993,0.188,4.981,0.198,4.971,0.212C4.964,0.221,4.954,0.226,4.948,0.236l-4.875,8
	C-0.071,8.472,0.004,8.779,0.24,8.923c0.082,0.05,0.171,0.073,0.26,0.073c0.168,0,0.333-0.085,0.427-0.239l3.948-6.48v35.844
	c0,0.276,0.224,0.5,0.5,0.5s0.5-0.224,0.5-0.5V2.278l3.948,6.479c0.144,0.235,0.45,0.31,0.687,0.166S10.82,8.472,10.677,8.236"/>
<rect fill="none" width="10.75" height="38.621"/>
</svg>
